<svg width="44" height="30" viewBox="0 0 44 30" fill="none" xmlns="http://www.w3.org/2000/svg">
<path d="M2.09979 4.03409V0.90909H23.918V4.03409H14.7702V30H11.2475V4.03409H2.09979Z" fill="#00875F"/>
<path d="M20.0838 14.1662C19.6345 14.1662 19.2267 14.0816 18.8604 13.9123C18.4942 13.7399 18.2034 13.4922 17.9879 13.169C17.7725 12.8428 17.6648 12.4489 17.6648 11.9872C17.6648 11.581 17.7448 11.2517 17.9048 10.9993C18.0649 10.7438 18.2788 10.5438 18.5465 10.3991C18.8143 10.2545 19.1097 10.1468 19.4329 10.076C19.7591 10.0021 20.0869 9.94366 20.4162 9.90057C20.8471 9.84517 21.1964 9.80362 21.4641 9.77592C21.735 9.74515 21.9319 9.69437 22.055 9.62358C22.1812 9.55279 22.2443 9.42969 22.2443 9.25426V9.21733C22.2443 8.76184 22.1197 8.40791 21.8704 8.15554C21.6242 7.90317 21.2502 7.77699 20.7486 7.77699C20.2285 7.77699 19.8207 7.89086 19.5252 8.11861C19.2298 8.34635 19.022 8.58949 18.902 8.84801L17.8679 8.47869C18.0526 8.04782 18.2988 7.71236 18.6065 7.4723C18.9174 7.22917 19.2559 7.0599 19.6222 6.96449C19.9915 6.866 20.3546 6.81676 20.7116 6.81676C20.9394 6.81676 21.201 6.84446 21.4964 6.89986C21.795 6.95218 22.0827 7.06143 22.3597 7.22763C22.6398 7.39382 22.8722 7.64465 23.0568 7.98011C23.2415 8.31558 23.3338 8.76491 23.3338 9.32812V14H22.2443V13.0398H22.1889C22.1151 13.1937 21.992 13.3583 21.8196 13.5337C21.6473 13.7092 21.418 13.8584 21.1317 13.9815C20.8455 14.1046 20.4962 14.1662 20.0838 14.1662ZM20.25 13.1875C20.6809 13.1875 21.044 13.1029 21.3395 12.9336C21.638 12.7643 21.8627 12.5458 22.0135 12.2781C22.1674 12.0103 22.2443 11.7287 22.2443 11.4332V10.4361C22.1982 10.4915 22.0966 10.5423 21.9396 10.5884C21.7857 10.6315 21.6072 10.67 21.4041 10.7038C21.2041 10.7346 21.0086 10.7623 20.8178 10.7869C20.6301 10.8085 20.4777 10.8269 20.3608 10.8423C20.0777 10.8793 19.813 10.9393 19.5668 11.0224C19.3236 11.1024 19.1267 11.224 18.9759 11.3871C18.8281 11.5471 18.7543 11.7656 18.7543 12.0426C18.7543 12.4212 18.8943 12.7074 19.1744 12.9013C19.4575 13.0921 19.8161 13.1875 20.25 13.1875ZM30.3451 8.49716L29.3664 8.77415C29.3048 8.61103 29.214 8.45253 29.094 8.29865C28.9771 8.14169 28.817 8.01243 28.6139 7.91087C28.4108 7.8093 28.1507 7.75852 27.8337 7.75852C27.3998 7.75852 27.0381 7.85855 26.7488 8.05859C26.4626 8.25556 26.3195 8.50639 26.3195 8.81108C26.3195 9.08191 26.418 9.29581 26.615 9.45277C26.8119 9.60973 27.1197 9.74053 27.5383 9.84517L28.5908 10.1037C29.2248 10.2576 29.6972 10.493 30.0081 10.81C30.3189 11.1239 30.4743 11.5286 30.4743 12.0241C30.4743 12.4304 30.3574 12.7936 30.1235 13.1136C29.8927 13.4337 29.5695 13.6861 29.154 13.8707C28.7385 14.0554 28.2554 14.1477 27.7045 14.1477C26.9812 14.1477 26.3826 13.9908 25.9086 13.6768C25.4347 13.3629 25.1346 12.9044 25.0084 12.3011L26.0425 12.0426C26.141 12.4242 26.3272 12.7105 26.6011 12.9013C26.8781 13.0921 27.2397 13.1875 27.686 13.1875C28.1938 13.1875 28.597 13.0798 28.8955 12.8643C29.1971 12.6458 29.3479 12.3842 29.3479 12.0795C29.3479 11.8333 29.2617 11.6271 29.0894 11.4609C28.9171 11.2917 28.6524 11.1655 28.2954 11.0824L27.1135 10.8054C26.4642 10.6515 25.9871 10.413 25.6824 10.0898C25.3808 9.76361 25.23 9.35582 25.23 8.86648C25.23 8.46638 25.3424 8.11245 25.567 7.80469C25.7948 7.49692 26.1041 7.25533 26.4949 7.0799C26.8889 6.90447 27.3351 6.81676 27.8337 6.81676C28.5354 6.81676 29.0863 6.97064 29.4864 7.27841C29.8896 7.58617 30.1758 7.99242 30.3451 8.49716ZM33.13 11.4148L33.1115 10.0668H33.3331L36.4354 6.90909H37.7834L34.478 10.2514H34.3857L33.13 11.4148ZM32.1143 14V4.54545H33.2038V14H32.1143ZM36.62 14L33.8501 10.4915L34.6257 9.73438L38.005 14H36.62ZM17.9972 29V21.9091H19.0866V29H17.9972ZM18.5511 20.7273C18.3388 20.7273 18.1557 20.6549 18.0018 20.5103C17.851 20.3656 17.7756 20.1918 17.7756 19.9886C17.7756 19.7855 17.851 19.6116 18.0018 19.467C18.1557 19.3223 18.3388 19.25 18.5511 19.25C18.7635 19.25 18.9451 19.3223 19.0959 19.467C19.2498 19.6116 19.3267 19.7855 19.3267 19.9886C19.3267 20.1918 19.2498 20.3656 19.0959 20.5103C18.9451 20.6549 18.7635 20.7273 18.5511 20.7273ZM21.0821 29V21.9091H22.1347V23.017H22.227C22.3747 22.6385 22.6133 22.3446 22.9426 22.1353C23.2719 21.9229 23.6673 21.8168 24.129 21.8168C24.5968 21.8168 24.9861 21.9229 25.297 22.1353C25.6109 22.3446 25.8556 22.6385 26.031 23.017H26.1048C26.2864 22.6508 26.5588 22.36 26.922 22.1445C27.2851 21.926 27.7206 21.8168 28.2284 21.8168C28.8624 21.8168 29.381 22.0153 29.7842 22.4123C30.1874 22.8062 30.3889 23.4202 30.3889 24.2543V29H29.2994V24.2543C29.2994 23.7311 29.1563 23.3571 28.8701 23.1325C28.5839 22.9078 28.2469 22.7955 27.8591 22.7955C27.3605 22.7955 26.9743 22.9463 26.7004 23.2479C26.4265 23.5464 26.2895 23.925 26.2895 24.3835V29H25.1816V24.1435C25.1816 23.7403 25.0508 23.4156 24.7892 23.1694C24.5276 22.9201 24.1905 22.7955 23.7781 22.7955C23.495 22.7955 23.2303 22.8709 22.9841 23.0217C22.741 23.1725 22.544 23.3817 22.3932 23.6495C22.2455 23.9142 22.1716 24.2204 22.1716 24.5682V29H21.0821ZM35.354 29.1477C34.6707 29.1477 34.0814 28.9969 33.5858 28.6953C33.0934 28.3906 32.7133 27.9659 32.4456 27.4212C32.1809 26.8733 32.0486 26.2363 32.0486 25.5099C32.0486 24.7836 32.1809 24.1435 32.4456 23.5895C32.7133 23.0324 33.0857 22.5985 33.5628 22.2876C34.0429 21.9737 34.603 21.8168 35.2432 21.8168C35.6125 21.8168 35.9772 21.8783 36.3373 22.0014C36.6974 22.1245 37.0251 22.3246 37.3206 22.6016C37.616 22.8755 37.8515 23.2386 38.0269 23.6911C38.2023 24.1435 38.29 24.7005 38.29 25.3622V25.8239H32.8241V24.8821H37.1821C37.1821 24.482 37.1021 24.125 36.942 23.8111C36.7851 23.4972 36.5604 23.2494 36.268 23.0678C35.9787 22.8862 35.6371 22.7955 35.2432 22.7955C34.8092 22.7955 34.4337 22.9032 34.1167 23.1186C33.8028 23.331 33.5612 23.608 33.392 23.9496C33.2227 24.2912 33.1381 24.6574 33.1381 25.0483V25.6761C33.1381 26.2116 33.2304 26.6656 33.415 27.038C33.6028 27.4073 33.8628 27.6889 34.1952 27.8828C34.5276 28.0736 34.9139 28.169 35.354 28.169C35.6402 28.169 35.8987 28.129 36.1295 28.049C36.3634 27.9659 36.565 27.8428 36.7343 27.6797C36.9036 27.5135 37.0344 27.3073 37.1267 27.0611L38.1792 27.3565C38.0684 27.7135 37.8823 28.0275 37.6206 28.2983C37.359 28.5661 37.0359 28.7753 36.6512 28.9261C36.2665 29.0739 35.8341 29.1477 35.354 29.1477ZM39.9474 29V21.9091H40.9999V22.9801H41.0738C41.203 22.6293 41.4369 22.3446 41.7755 22.1261C42.114 21.9076 42.4957 21.7983 42.9204 21.7983C43.0004 21.7983 43.1004 21.7998 43.2204 21.8029C43.3405 21.806 43.4313 21.8106 43.4928 21.8168V22.9247C43.4559 22.9155 43.3712 22.9016 43.2389 22.8832C43.1096 22.8616 42.9727 22.8509 42.828 22.8509C42.4833 22.8509 42.1756 22.9232 41.9047 23.0678C41.637 23.2094 41.4246 23.4064 41.2677 23.6587C41.1138 23.908 41.0368 24.1927 41.0368 24.5128V29H39.9474Z" fill="#D9D9D9"/>
</svg>
